<svg viewBox="0 0 161 161" fill="none" xmlns="http://www.w3.org/2000/svg">
<circle cx="80.5" cy="80.5" r="15.5" fill="white"/>
<path fill-rule="evenodd" clip-rule="evenodd" d="M49.8155 47.7231C54.7915 43.1109 60.8359 39.6351 67.536 37.7084L69.0293 46.6625C64.7231 48.0422 60.7799 50.233 57.3796 53.0553L49.8155 47.7231ZM79.719 115C79.9549 115 80.1902 114.998 80.4249 114.993L81.918 123.946C81.1896 123.982 80.4564 124 79.719 124C76.5086 124 73.3786 123.656 70.3636 123.003L72.8184 114.32C75.0494 114.766 77.3569 115 79.719 115ZM65.5751 112.024L63.1067 120.756C59.4811 119.277 56.0972 117.328 53.0304 114.985L59.488 108.564C61.3857 109.911 63.4235 111.073 65.5751 112.024ZM51.92 101.268C51.2676 100.417 50.6534 99.5345 50.08 98.6239L41.9108 102.52C42.9848 104.319 44.1836 106.035 45.4952 107.656L51.92 101.268ZM45.0735 85C45.4215 87.4334 46.0199 89.786 46.8417 92.031L38.6873 95.9197C37.3477 92.4695 36.4308 88.8084 36 85H45.0735ZM45.2313 74C45.5792 71.9862 46.0992 70.0314 46.7756 68.1511L39.2025 62.8126C37.7082 66.3307 36.6587 70.0834 36.1247 74H45.2313ZM91.2536 113.055L92.7517 122.038C99.0652 120.083 104.771 116.744 109.514 112.377L101.943 107.04C98.7934 109.632 95.1831 111.684 91.2536 113.055ZM78.4062 36.0192L79.9041 45.0005C83.8625 45.021 87.6654 45.6986 91.2094 46.9298L95.0809 38.756C90.2984 36.974 85.1225 36 79.719 36C79.2799 36 78.8423 36.0064 78.4062 36.0192ZM102.294 42.2251L98.4182 50.4085C103.191 53.4306 107.182 57.5753 110.02 62.4714L118.262 58.7599C114.494 51.9375 108.968 46.2221 102.294 42.2251ZM114.493 76C114.156 73.0385 113.449 70.1891 112.421 67.4992L120.678 63.8936C122.175 67.6987 123.158 71.7627 123.54 76H114.493ZM114.365 85C114.019 87.4185 113.425 89.7573 112.611 91.9898L120.178 97.3234C121.83 93.4682 122.948 89.3293 123.438 85H114.365Z" fill="#BEBEBE"/>
<path opacity="0.52" fill-rule="evenodd" clip-rule="evenodd" d="M137.136 97.9787C138.254 94.3828 139.033 90.6817 139.457 86.9276L131.463 86.4066C131.14 89.0951 130.606 91.751 129.869 94.3485L137.136 97.9787ZM122.605 109.723C121.754 110.949 120.846 112.141 119.884 113.296L125.012 119.61C126.765 117.616 128.372 115.518 129.828 113.331L122.605 109.723ZM53.521 124.291C47.3613 120.546 41.9237 115.468 37.6883 109.203L30.5899 112.977C35.7237 120.811 42.4657 127.085 50.1382 131.59L53.521 124.291ZM29.9797 91.2282C30.6548 94.3319 31.6272 97.4082 32.9083 100.419L25.8216 104.187C24.0941 100.256 22.826 96.2241 21.9975 92.1555L29.9797 91.2282ZM28.8481 82.2991C28.6529 77.1657 29.2312 72.0574 30.5306 67.1454L22.9654 64.4752C21.2912 70.5375 20.5709 76.8684 20.8789 83.2249L28.8481 82.2991ZM41.4685 46.4793C38.6951 49.6663 36.349 53.1599 34.4587 56.8668L26.8568 54.1836C29.2015 49.3745 32.2021 44.8612 35.8133 40.7924L41.4685 46.4793ZM46.4147 41.5259C49.3298 38.9815 52.5795 36.7278 56.1429 34.8331C56.402 34.6953 56.6619 34.5599 56.9223 34.4269L54.7051 26.5999C53.9278 26.9714 53.1549 27.3612 52.387 27.7695C48.1123 30.0425 44.2283 32.7626 40.7621 35.8416L46.4147 41.5259ZM84.459 28.9646C81.7967 28.7475 79.1087 28.7367 76.4196 28.9395L74.2001 21.1044C77.9883 20.7141 81.7821 20.6932 85.5298 21.026L84.459 28.9646ZM89.417 29.6119C91.4824 29.9839 93.5223 30.4811 95.5247 31.0998L98.5357 23.661C95.9041 22.815 93.2144 22.1515 90.4873 21.6766L89.417 29.6119ZM108.195 36.9886C106.577 35.9498 104.906 35.0049 103.191 34.1568L106.2 26.7228C108.721 27.9377 111.161 29.3324 113.5 30.9002L108.195 36.9886ZM118.831 46.0925C120.087 47.508 121.273 49.0039 122.382 50.5777L129.495 46.7959C127.853 44.3806 126.057 42.1187 124.126 40.0165L118.831 46.0925ZM130.887 70.4653C130.397 67.9561 129.716 65.4618 128.835 63.0027L135.964 59.2121C137.236 62.554 138.186 65.9568 138.826 69.3819L130.887 70.4653ZM139.703 76.3272C139.827 78.2012 139.862 80.0742 139.809 81.9399L131.818 81.4191C131.848 80.0865 131.827 78.7498 131.752 77.412L139.703 76.3272ZM59.1562 135.914C65.0174 138.142 71.2174 139.444 77.5155 139.748L76.7311 131.686C71.868 131.342 67.0846 130.309 62.5299 128.634L59.1562 135.914ZM108.256 132.84C103.472 135.383 98.4968 137.208 93.4552 138.352L92.6731 130.314C96.6973 129.317 100.665 127.814 104.492 125.78L109.619 132.092C109.169 132.346 108.715 132.595 108.256 132.84Z" fill="#C2C2C2"/>
</svg>
