<svg xmlns="http://www.w3.org/2000/svg" viewBox="0 0 559.5 467.08"><defs></defs><g id="Layer_2" data-name="Layer 2"><g id="Layer_1-2" data-name="Layer 1"><path class="cls-1" d="M416 258.54H227.5a25 25 0 110-50H416a25 25 0 010 50z"/><path class="cls-1" d="M386.81 333.26l172.69-99.71-172.69-99.73v199.44z"/><path class="cls-1" d="M233.54 467.08A233.54 233.54 0 0168.4 68.4a233.52 233.52 0 01331.4 1.15l-35.6 35.11A182.2 182.2 0 00233.54 50C132.34 50 50 132.34 50 233.54s82.34 183.54 183.54 183.54a182.2 182.2 0 00130.66-54.66l35.6 35.12a231.89 231.89 0 01-166.26 69.54z"/></g></g></svg>
