<svg xmlns="http://www.w3.org/2000/svg" viewBox="0 0 349.1 547.91"><g data-name="Layer 2"><path d="M192.66 386.68c0 17.76-13 26.64-30.06 26.64-17.77 0-31.43-8.88-31.43-26.64v-19.13c0-43 6.83-65.59 25.28-88.81 13.66-17.77 21.18-24.6 61.48-51.92 50.56-35.53 65.59-53.29 65.59-88.13 0-50.56-38.94-82.69-103.84-82.69C116.82 56 82 88.13 66.27 134.59c-5.47 16.41-16.4 22.54-28.69 22.54a75.65 75.65 0 01-12.3-1.36C12.3 152.35 0 144.15 0 129.12a37.8 37.8 0 012.05-11.61c9.56-30.06 26.64-57.39 51.24-77.89C82.66 15 123.66 0 183.09 0c101.11 0 166 52.6 166 136 0 56.71-28 88.13-80.61 125-56.7 39.63-75.83 54.66-75.83 107.26zm15.71 114.09c0 28.69-21.18 47.14-47.14 47.14-26.64 0-47.14-18.45-47.14-47.14s20.5-47.14 47.14-47.14c25.96 0 47.14 18.45 47.14 47.14z" data-name="Layer 1"/></g></svg>
